<?xml version="1.0" encoding="UTF-8" standalone="no"?><!DOCTYPE svg PUBLIC "-//W3C//DTD SVG 1.1//EN" "http://www.w3.org/Graphics/SVG/1.1/DTD/svg11.dtd"><svg width="100%" height="100%" viewBox="0 0 500 500" version="1.1" xmlns="http://www.w3.org/2000/svg" xmlns:xlink="http://www.w3.org/1999/xlink" xml:space="preserve" xmlns:serif="http://www.serif.com/" style="fill-rule:evenodd;clip-rule:evenodd;stroke-linejoin:round;stroke-miterlimit:1.41421;"><path d="M125,0l0,250l-125,0l0,-250l125,0Z" style="fill:#404040;fill-opacity:0.2;"/><path d="M125,250l-125,0l0,-250l125,0l0,250Zm-123,-2l121,0l0,-246l-121,0l0,246Z" style="fill-opacity:0.352941;"/><path d="M250,125l0,250l-125,0l0,-250l125,0Z" style="fill:#404040;fill-opacity:0.2;"/><path d="M250,375l-125,0l0,-250l125,0l0,250Zm-123,-248l0,246l121,0l0,-246l-121,0Z" style="fill-opacity:0.352941;"/><path d="M375,250l0,250l-125,0l0,-250l125,0Z" style="fill:#404040;fill-opacity:0.2;"/><path d="M375,500l-125,0l0,-250l125,0l0,250Zm-123,-248l0,246l121,0l0,-246l-121,0Z" style="fill-opacity:0.352941;"/><path d="M500,375l0,250l-125,0l0,-250l125,0Z" style="fill:#404040;fill-opacity:0.2;"/><path d="M500,625l-125,0l0,-250l125,0l0,250Zm-123,-248l0,246l121,0l0,-246l-121,0Z" style="fill-opacity:0.352941;"/><path d="M375,125l0,-250l125,0l0,250l-125,0Z" style="fill:#404040;fill-opacity:0.2;"/><path d="M500,125l-125,0l0,-250l125,0l0,250Zm-123,-248l0,246l121,0l0,-246l-121,0Z" style="fill-opacity:0.352941;"/><rect x="125" y="0" width="250" height="125" style="fill:#616161;fill-opacity:0.2;"/><path d="M375,125l-250,0l0,-125l250,0l0,125Zm-248,-123l0,121l246,0l0,-121l-246,0Z" style="fill-opacity:0.352941;"/><rect x="250" y="125" width="250" height="125" style="fill:#616161;fill-opacity:0.2;"/><path d="M500,250l-250,0l0,-125l250,0l0,125Zm-248,-123l0,121l246,0l0,-121l-246,0Z" style="fill-opacity:0.352941;"/><rect x="375" y="250" width="250" height="125" style="fill:#616161;fill-opacity:0.2;"/><path d="M625,375l-250,0l0,-125l250,0l0,125Zm-248,-123l0,121l246,0l0,-121l-246,0Z" style="fill-opacity:0.352941;"/><rect x="500" y="375" width="250" height="125" style="fill:#616161;fill-opacity:0.2;"/><path d="M750,500l-250,0l0,-125l250,0l0,125Zm-248,-123l0,121l246,0l0,-121l-246,0Z" style="fill-opacity:0.352941;"/><rect x="0" y="375" width="250" height="125" style="fill:#616161;fill-opacity:0.2;"/><path d="M250,500l-250,0l0,-125l250,0l0,125Zm-248,-123l0,121l246,0l0,-121l-246,0Z" style="fill-opacity:0.352941;"/><rect x="-125" y="250" width="250" height="125" style="fill:#616161;fill-opacity:0.2;"/><path d="M125,375l-250,0l0,-125l250,0l0,125Zm-248,-123l0,121l246,0l0,-121l-246,0Z" style="fill-opacity:0.352941;"/></svg>