<?xml version="1.0" encoding="UTF-8" standalone="no"?><!DOCTYPE svg PUBLIC "-//W3C//DTD SVG 1.1//EN" "http://www.w3.org/Graphics/SVG/1.1/DTD/svg11.dtd"><svg width="100%" height="100%" viewBox="0 0 100 100" version="1.1" xmlns="http://www.w3.org/2000/svg" xmlns:xlink="http://www.w3.org/1999/xlink" xml:space="preserve" xmlns:serif="http://www.serif.com/" style="fill-rule:evenodd;clip-rule:evenodd;stroke-linejoin:round;stroke-miterlimit:1.41421;"><path d="M74,8.431c22.943,13.246 30.815,42.626 17.569,65.569c-13.246,22.943 -42.626,30.815 -65.569,17.569c-22.943,-13.246 -30.815,-42.626 -17.569,-65.569c13.246,-22.943 42.626,-30.815 65.569,-17.569Zm-10.03,25.89c-2.142,-1.909 -4.652,-3.358 -7.376,-4.259c-2.053,4.15 -5.302,6.874 -9.746,8.173c-4.499,1.097 -8.674,0.362 -12.527,-2.205c-1.909,2.142 -3.358,4.652 -4.259,7.376c4.15,2.053 6.874,5.302 8.173,9.746c1.097,4.499 0.362,8.674 -2.205,12.527c2.142,1.909 4.652,3.358 7.376,4.259c2.053,-4.15 5.302,-6.874 9.746,-8.173c4.499,-1.097 8.674,-0.362 12.527,2.205c1.909,-2.142 3.358,-4.652 4.259,-7.376c-4.15,-2.053 -6.874,-5.302 -8.173,-9.746c-1.097,-4.499 -0.362,-8.674 2.205,-12.527Z" style="fill:#313131;"/></svg>