<?xml version="1.0" encoding="UTF-8" standalone="no"?><!DOCTYPE svg PUBLIC "-//W3C//DTD SVG 1.1//EN" "http://www.w3.org/Graphics/SVG/1.1/DTD/svg11.dtd"><svg width="100%" height="100%" viewBox="0 0 200 200" version="1.1" xmlns="http://www.w3.org/2000/svg" xmlns:xlink="http://www.w3.org/1999/xlink" xml:space="preserve" xmlns:serif="http://www.serif.com/" style="fill-rule:evenodd;clip-rule:evenodd;stroke-linejoin:round;stroke-miterlimit:1.41421;"><path d="M5.762,169.02c5.534,-6.023 10.783,-12.37 15.747,-19.043c4.964,-6.674 9.399,-13.428 13.305,-20.264c3.907,-6.836 7.243,-13.509 10.01,-20.02c2.767,-6.51 4.72,-12.614 5.86,-18.31c-1.791,-1.628 -4.029,-3.377 -6.714,-5.249c-2.686,-1.872 -5.575,-3.622 -8.667,-5.249c-3.093,-1.628 -6.267,-3.052 -9.522,-4.273c-3.255,-1.22 -6.347,-2.156 -9.277,-2.807c-1.302,-2.279 -2.197,-4.965 -2.686,-8.057c-0.488,-3.092 -0.732,-5.778 -0.732,-8.057c0,-3.906 0.773,-7.975 2.319,-12.207c1.546,-4.231 3.784,-8.138 6.714,-11.718c2.93,-3.581 6.633,-6.511 11.109,-8.789c4.475,-2.279 9.643,-3.418 15.502,-3.418c4.558,0 9.074,0.854 13.55,2.563c4.476,1.709 8.505,4.435 12.085,8.179c3.581,3.743 6.47,8.585 8.667,14.526c2.197,5.941 3.296,13.143 3.296,21.607c0,7.812 -1.221,16.194 -3.662,25.146c-2.441,8.952 -6.307,18.189 -11.597,27.71c-5.289,9.522 -12.085,19.206 -20.385,29.053c-8.301,9.847 -18.23,19.653 -29.786,29.419l-15.136,-10.742Zm105.468,0c5.534,-6.023 10.783,-12.37 15.748,-19.043c4.964,-6.674 9.399,-13.428 13.305,-20.264c3.906,-6.836 7.243,-13.509 10.01,-20.02c2.767,-6.51 4.72,-12.614 5.859,-18.31c-1.79,-1.628 -4.028,-3.377 -6.714,-5.249c-2.685,-1.872 -5.574,-3.622 -8.667,-5.249c-3.092,-1.628 -6.266,-3.052 -9.521,-4.273c-3.255,-1.22 -6.348,-2.156 -9.277,-2.807c-1.302,-2.279 -2.198,-4.965 -2.686,-8.057c-0.488,-3.092 -0.732,-5.778 -0.732,-8.057c0,-3.906 0.773,-7.975 2.319,-12.207c1.546,-4.231 3.784,-8.138 6.714,-11.718c2.93,-3.581 6.632,-6.511 11.108,-8.789c4.476,-2.279 9.644,-3.418 15.503,-3.418c4.558,0 9.074,0.854 13.55,2.563c4.476,1.709 8.504,4.435 12.085,8.179c3.581,3.743 6.47,8.585 8.667,14.526c2.197,5.941 3.296,13.143 3.296,21.607c0,7.812 -1.221,16.194 -3.662,25.146c-2.442,8.952 -6.307,18.189 -11.597,27.71c-5.29,9.522 -12.085,19.206 -20.386,29.053c-8.3,9.847 -18.229,19.653 -29.785,29.419l-15.137,-10.742Z" style="fill:#2f2f2f;fill-rule:nonzero;"/></svg>