<svg width="100%" height="100%" viewBox="0 0 70 70" version="1.1" xmlns="http://www.w3.org/2000/svg" xmlns:xlink="http://www.w3.org/1999/xlink" xml:space="preserve" style="fill-rule:evenodd;clip-rule:evenodd;stroke-linejoin:round;stroke-miterlimit:1.41421;">
<path d="M65,35c0,-2.208 -1.792,-4 -4,-4l-52,0c-2.208,0 -4,1.792 -4,4c0,2.208 1.792,4 4,4l52,0c2.208,0 4,-1.792 4,-4Z" style="fill:#fff;fill-opacity:0.217391;"/>
<path d="M65,18.968c0,-2.207 -1.792,-4 -4,-4l-52,0c-2.208,0 -4,1.793 -4,4c0,2.208 1.792,4 4,4l52,0c2.208,0 4,-1.792 4,-4Z" style="fill:#fff;fill-opacity:0.217391;"/>
<path d="M65,51.032c0,-2.208 -1.792,-4 -4,-4l-52,0c-2.208,0 -4,1.792 -4,4c0,2.207 1.792,4 4,4l52,0c2.208,0 4,-1.793 4,-4Z" style="fill:#fff;fill-opacity:0.217391;"/>
</svg>